<mxfile host="app.diagrams.net" modified="2023-01-18T16:13:30.080Z" agent="5.0 (Windows)" version="20.8.4" etag="YGfhWYa2VuMhqvHB7XVm" type="github">
  <diagram id="T_eNVjX2y1J2fpJTGCPz" name="Page-1">
    <mxGraphModel dx="794" dy="373" grid="1" gridSize="10" guides="1" tooltips="1" connect="1" arrows="1" fold="1" page="1" pageScale="1" pageWidth="850" pageHeight="1100" math="0" shadow="0">
      <root>
        <mxCell id="0" />
        <mxCell id="1" parent="0" />
        <mxCell id="NGMco84n5WukVCoRp7ES-1" value="" style="html=1;shadow=0;dashed=0;align=center;verticalAlign=middle;shape=mxgraph.arrows2.arrow;dy=0.6;dx=40;notch=0;" vertex="1" parent="1">
          <mxGeometry x="60" y="40" width="740" height="250" as="geometry" />
        </mxCell>
        <mxCell id="NGMco84n5WukVCoRp7ES-2" value="By Jan. 25: Have code design completed" style="rounded=1;whiteSpace=wrap;html=1;" vertex="1" parent="1">
          <mxGeometry x="60" y="130" width="120" height="60" as="geometry" />
        </mxCell>
        <mxCell id="NGMco84n5WukVCoRp7ES-3" value="By Feb 11: Begin testing variable caller" style="rounded=1;whiteSpace=wrap;html=1;" vertex="1" parent="1">
          <mxGeometry x="305" y="130" width="120" height="60" as="geometry" />
        </mxCell>
      </root>
    </mxGraphModel>
  </diagram>
</mxfile>
